<svg xmlns="http://www.w3.org/2000/svg" xmlns:xlink="http://www.w3.org/1999/xlink" width="2000" zoomAndPan="magnify" viewBox="0 0 1500 1499.999933" height="2000" preserveAspectRatio="xMidYMid meet" version="1.0"><defs><g/><clipPath id="b3e8e8767d"><rect x="0" width="458" y="0" height="415"/></clipPath><clipPath id="f03a4f1ee7"><rect x="0" width="394" y="0" height="324"/></clipPath></defs><rect x="-150" width="1800" fill="#ffffff" y="-149.999993" height="1799.99992" fill-opacity="1"/><rect x="-150" width="1800" fill="#eeede9" y="-149.999993" height="1799.99992" fill-opacity="1"/><g transform="matrix(1, 0, 0, 1, 759, 500)"><g clip-path="url(#b3e8e8767d)"><g fill="#1b1b1b" fill-opacity="1"><g transform="translate(0.715163, 336.471636)"><g><path d="M 65.390625 0.84375 C 50.472656 0.84375 39.476562 -1.414062 32.40625 -5.9375 C 25.332031 -10.46875 20.945312 -15.941406 19.25 -22.359375 C 17.550781 -28.773438 16.703125 -36.984375 16.703125 -46.984375 L 16.984375 -212.28125 L 60.859375 -212.28125 L 60.859375 -56.046875 C 60.859375 -49.441406 61.1875 -44.488281 61.84375 -41.1875 C 62.507812 -37.882812 64.394531 -35.285156 67.5 -33.390625 C 70.613281 -31.503906 75.566406 -30.5625 82.359375 -30.5625 C 85.953125 -30.5625 88.40625 -30.753906 89.71875 -31.140625 L 89.71875 -0.5625 C 81.226562 0.375 73.117188 0.84375 65.390625 0.84375 Z M 65.390625 0.84375 "/></g></g></g><g fill="#1b1b1b" fill-opacity="1"><g transform="translate(77.422732, 336.471636)"><g><path d="M 67.078125 2.546875 C 48.585938 2.546875 34.296875 -4.476562 24.203125 -18.53125 C 14.109375 -32.59375 9.0625 -51.414062 9.0625 -75 C 9.0625 -98.78125 14.25 -117.695312 24.625 -131.75 C 35 -145.8125 49.335938 -152.84375 67.640625 -152.84375 C 80.285156 -152.84375 90.003906 -150.054688 96.796875 -144.484375 C 103.585938 -138.921875 108.304688 -133.3125 110.953125 -127.65625 L 113.21875 -127.65625 L 113.21875 -149.734375 L 157.65625 -149.734375 L 157.65625 0 L 113.21875 0 L 113.21875 -24.0625 L 110.953125 -24.0625 C 108.117188 -18.019531 103.257812 -12.070312 96.375 -6.21875 C 89.488281 -0.375 79.722656 2.546875 67.078125 2.546875 Z M 83.78125 -32.828125 C 93.78125 -32.828125 101.234375 -37.023438 106.140625 -45.421875 C 111.046875 -53.828125 113.5 -63.785156 113.5 -75.296875 C 113.5 -86.609375 111.046875 -96.460938 106.140625 -104.859375 C 101.234375 -113.265625 93.78125 -117.46875 83.78125 -117.46875 C 73.40625 -117.46875 65.8125 -113.363281 61 -105.15625 C 56.1875 -96.945312 53.78125 -87.085938 53.78125 -75.578125 C 53.78125 -63.878906 56.1875 -53.828125 61 -45.421875 C 65.8125 -37.023438 73.40625 -32.828125 83.78125 -32.828125 Z M 83.78125 -32.828125 "/></g></g></g><g fill="#1b1b1b" fill-opacity="1"><g transform="translate(229.139563, 336.471636)"><g><path d="M 105.015625 2.546875 C 92.554688 2.546875 82.929688 -0.28125 76.140625 -5.9375 C 69.347656 -11.601562 64.347656 -17.644531 61.140625 -24.0625 L 58.875 -24.0625 L 58.875 0 L 14.4375 0 L 14.4375 -212.5625 L 58.875 -212.5625 L 58.875 -127.65625 L 61.140625 -127.65625 C 63.773438 -133.3125 68.535156 -138.921875 75.421875 -144.484375 C 82.316406 -150.054688 92.085938 -152.84375 104.734375 -152.84375 C 123.410156 -152.84375 137.796875 -145.859375 147.890625 -131.890625 C 157.984375 -117.929688 163.03125 -98.96875 163.03125 -75 C 163.03125 -51.414062 157.984375 -32.59375 147.890625 -18.53125 C 137.796875 -4.476562 123.503906 2.546875 105.015625 2.546875 Z M 88.59375 -32.265625 C 98.78125 -32.265625 106.28125 -36.507812 111.09375 -45 C 115.90625 -53.488281 118.3125 -63.488281 118.3125 -75 C 118.3125 -86.507812 115.90625 -96.367188 111.09375 -104.578125 C 106.28125 -112.785156 98.78125 -116.890625 88.59375 -116.890625 C 78.40625 -116.890625 70.90625 -112.738281 66.09375 -104.4375 C 61.28125 -96.132812 58.875 -86.320312 58.875 -75 C 58.875 -63.488281 61.328125 -53.488281 66.234375 -45 C 71.140625 -36.507812 78.59375 -32.265625 88.59375 -32.265625 Z M 88.59375 -32.265625 "/></g></g></g><g fill="#1b1b1b" fill-opacity="1"><g transform="translate(379.724206, 336.471636)"><g><path d="M 47.546875 2.546875 C 40.566406 2.546875 34.8125 0.1875 30.28125 -4.53125 C 25.757812 -9.25 23.5 -15.003906 23.5 -21.796875 C 23.5 -28.585938 25.757812 -34.296875 30.28125 -38.921875 C 34.8125 -43.546875 40.566406 -45.859375 47.546875 -45.859375 C 54.535156 -45.859375 60.335938 -43.546875 64.953125 -38.921875 C 69.578125 -34.296875 71.890625 -28.585938 71.890625 -21.796875 C 71.890625 -15.003906 69.53125 -9.25 64.8125 -4.53125 C 60.09375 0.1875 54.335938 2.546875 47.546875 2.546875 Z M 47.546875 2.546875 "/></g></g></g></g></g><g transform="matrix(1, 0, 0, 1, 325, 600)"><g clip-path="url(#f03a4f1ee7)"><g fill="#1b1b1b" fill-opacity="1"><g transform="translate(0.882206, 231.140852)"><g><path d="M 123.8125 -30.15625 C 121.882812 -23.09375 120.921875 -18.382812 120.921875 -16.03125 C 120.921875 -14.75 121.296875 -13.679688 122.046875 -12.828125 C 122.796875 -11.972656 123.707031 -11.546875 124.78125 -11.546875 C 127.34375 -11.546875 131.082031 -13.738281 136 -18.125 C 140.914062 -22.507812 145.515625 -27.910156 149.796875 -34.328125 L 154.28125 -30.15625 C 147.65625 -20.53125 139.957031 -12.457031 131.1875 -5.9375 C 122.425781 0.582031 115.15625 3.84375 109.375 3.84375 C 105.3125 3.84375 102.101562 2.347656 99.75 -0.640625 C 97.40625 -3.628906 96.234375 -7.050781 96.234375 -10.90625 C 96.234375 -14.320312 96.660156 -18.007812 97.515625 -21.96875 C 98.367188 -25.925781 99.117188 -28.65625 99.765625 -30.15625 L 107.140625 -55.171875 L 106.5 -55.8125 C 96.226562 -40.625 85 -26.882812 72.8125 -14.59375 C 60.625 -2.300781 48.96875 3.84375 37.84375 3.84375 C 28.863281 3.84375 21.859375 -0.320312 16.828125 -8.65625 C 11.804688 -17 9.296875 -26.195312 9.296875 -36.25 C 9.296875 -52.5 14.269531 -69.285156 24.21875 -86.609375 C 34.164062 -103.929688 46.566406 -118.257812 61.421875 -129.59375 C 76.285156 -140.925781 90.5625 -146.59375 104.25 -146.59375 C 114.082031 -146.59375 122.421875 -142.101562 129.265625 -133.125 L 146.90625 -194.703125 C 148.832031 -201.546875 149.796875 -206.460938 149.796875 -209.453125 C 149.796875 -212.660156 148.507812 -214.691406 145.9375 -215.546875 C 143.375 -216.410156 139.957031 -216.84375 135.6875 -216.84375 L 126.703125 -216.515625 L 126.375 -221.328125 L 175.140625 -229.984375 L 180.90625 -229.984375 Z M 62.546875 -110.34375 C 54.847656 -99.4375 48.539062 -87.40625 43.625 -74.25 C 38.707031 -61.101562 36.25 -49.078125 36.25 -38.171875 C 36.25 -30.046875 37.691406 -24.054688 40.578125 -20.203125 C 43.460938 -16.359375 47.363281 -14.4375 52.28125 -14.4375 C 60.40625 -14.4375 70.023438 -20.421875 81.140625 -32.390625 C 92.265625 -44.367188 101.890625 -58.644531 110.015625 -75.21875 C 118.148438 -91.789062 122.21875 -106.382812 122.21875 -119 C 122.21875 -126.269531 120.128906 -131.671875 115.953125 -135.203125 C 111.785156 -138.734375 107.457031 -140.5 102.96875 -140.5 C 96.757812 -140.5 90.070312 -137.769531 82.90625 -132.3125 C 75.75 -126.863281 68.960938 -119.539062 62.546875 -110.34375 Z M 62.546875 -110.34375 "/></g></g></g><g fill="#1b1b1b" fill-opacity="1"><g transform="translate(138.805519, 231.140852)"><g><path d="M 103.921875 -146.59375 C 112.910156 -146.59375 120.453125 -144.347656 126.546875 -139.859375 C 132.640625 -135.367188 135.6875 -129.59375 135.6875 -122.53125 C 135.6875 -115.6875 132.476562 -107.878906 126.0625 -99.109375 C 119.644531 -90.347656 109.21875 -82.597656 94.78125 -75.859375 C 80.351562 -69.117188 62.019531 -65.429688 39.78125 -64.796875 C 38.488281 -60.515625 37.84375 -55.273438 37.84375 -49.078125 C 37.84375 -36.035156 41.367188 -26.570312 48.421875 -20.6875 C 55.484375 -14.8125 63.289062 -11.875 71.84375 -11.875 C 86.175781 -11.875 100.71875 -19.035156 115.46875 -33.359375 L 119.640625 -29.515625 C 96.765625 -7.273438 74.632812 3.84375 53.25 3.84375 C 44.476562 3.84375 36.832031 1.65625 30.3125 -2.71875 C 23.789062 -7.101562 18.867188 -12.820312 15.546875 -19.875 C 12.234375 -26.9375 10.578125 -34.210938 10.578125 -41.703125 C 10.578125 -56.671875 14.90625 -72.382812 23.5625 -88.84375 C 32.226562 -105.3125 43.78125 -119.050781 58.21875 -130.0625 C 72.65625 -141.082031 87.890625 -146.59375 103.921875 -146.59375 Z M 41.703125 -70.890625 C 56.242188 -71.960938 68.003906 -74.421875 76.984375 -78.265625 C 85.753906 -82.117188 92.863281 -87.09375 98.3125 -93.1875 C 103.769531 -99.28125 107.671875 -105.265625 110.015625 -111.140625 C 112.367188 -117.023438 113.546875 -121.890625 113.546875 -125.734375 C 113.546875 -129.367188 112.207031 -132.738281 109.53125 -135.84375 C 106.863281 -138.945312 103.070312 -140.5 98.15625 -140.5 C 89.601562 -140.5 81.316406 -136.539062 73.296875 -128.625 C 65.273438 -120.71875 58.429688 -111.3125 52.765625 -100.40625 C 47.097656 -89.5 43.410156 -79.660156 41.703125 -70.890625 Z M 41.703125 -70.890625 "/></g></g></g><g fill="#1b1b1b" fill-opacity="1"><g transform="translate(249.784902, 231.140852)"><g><path d="M 75.0625 -28.234375 C 88.75 -43.835938 99.65625 -59.550781 107.78125 -75.375 C 115.90625 -91.195312 119.96875 -103.175781 119.96875 -111.3125 C 119.96875 -114.300781 119.378906 -116.539062 118.203125 -118.03125 C 117.023438 -119.53125 115.15625 -121.03125 112.59375 -122.53125 C 110.019531 -124.03125 108.144531 -125.523438 106.96875 -127.015625 C 105.800781 -128.515625 105.21875 -130.765625 105.21875 -133.765625 C 105.21875 -137.398438 106.550781 -140.445312 109.21875 -142.90625 C 111.894531 -145.363281 115.15625 -146.59375 119 -146.59375 C 123.707031 -146.59375 127.664062 -144.664062 130.875 -140.8125 C 134.082031 -136.96875 135.6875 -132.476562 135.6875 -127.34375 C 135.6875 -113.65625 128.570312 -95.101562 114.34375 -71.6875 C 100.125 -48.269531 81.148438 -23.09375 57.421875 3.84375 L 51.640625 3.84375 L 51.96875 -18.921875 C 51.96875 -47.578125 50.363281 -74.09375 47.15625 -98.46875 C 45.226562 -112.375 42.976562 -121.734375 40.40625 -126.546875 C 37.84375 -131.359375 34.210938 -133.765625 29.515625 -133.765625 C 25.660156 -133.765625 22.664062 -133.441406 20.53125 -132.796875 L 20.53125 -138.578125 L 61.90625 -146.59375 C 67.039062 -132.257812 70.460938 -114.828125 72.171875 -94.296875 C 73.878906 -73.773438 74.84375 -51.753906 75.0625 -28.234375 Z M 75.0625 -28.234375 "/></g></g></g></g></g><g fill="#1b1b1b" fill-opacity="1"><g transform="translate(334.025396, 924.255908)"><g><path d="M 6.828125 -3.09375 C 7.679688 -2.5 8.796875 -2.203125 10.171875 -2.203125 C 13.304688 -2.203125 14.875 -3.382812 14.875 -5.75 C 14.875 -7.125 13.742188 -8.171875 11.484375 -8.890625 C 10.535156 -9.210938 9.523438 -9.503906 8.453125 -9.765625 C 7.335938 -10.035156 6.304688 -10.378906 5.359375 -10.796875 C 4.242188 -11.328125 3.40625 -11.984375 2.84375 -12.765625 C 2.289062 -13.554688 2.015625 -14.488281 2.015625 -15.5625 C 2.015625 -17.726562 2.765625 -19.347656 4.265625 -20.421875 C 5.773438 -21.535156 7.578125 -22.09375 9.671875 -22.09375 C 11.765625 -22.09375 13.5 -21.671875 14.875 -20.828125 C 16.25 -19.972656 17.179688 -18.445312 17.671875 -16.25 L 14 -16.25 C 13.601562 -17.46875 13.03125 -18.269531 12.28125 -18.65625 C 11.5625 -19.050781 10.660156 -19.25 9.578125 -19.25 C 8.492188 -19.25 7.578125 -19.019531 6.828125 -18.5625 C 6.035156 -18.070312 5.640625 -17.351562 5.640625 -16.40625 C 5.640625 -15.414062 5.96875 -14.691406 6.625 -14.234375 C 7.25 -13.816406 8.035156 -13.441406 8.984375 -13.109375 C 9.929688 -12.816406 10.960938 -12.554688 12.078125 -12.328125 C 13.160156 -12.066406 14.191406 -11.707031 15.171875 -11.25 C 17.398438 -10.195312 18.515625 -8.507812 18.515625 -6.1875 C 18.515625 -3.863281 17.679688 -2.144531 16.015625 -1.03125 C 15.160156 -0.476562 14.222656 -0.0507812 13.203125 0.25 C 12.222656 0.507812 11.144531 0.640625 9.96875 0.640625 C 4.957031 0.640625 2.078125 -1.585938 1.328125 -6.046875 L 4.953125 -6.046875 C 5.316406 -4.628906 5.941406 -3.644531 6.828125 -3.09375 Z M 6.828125 -3.09375 "/></g></g></g><g fill="#1b1b1b" fill-opacity="1"><g transform="translate(353.764233, 924.255908)"><g><path d="M 7.171875 -29.078125 C 7.597656 -28.648438 7.8125 -28.140625 7.8125 -27.546875 C 7.8125 -26.929688 7.597656 -26.410156 7.171875 -25.984375 C 6.742188 -25.554688 6.234375 -25.34375 5.640625 -25.34375 C 5.023438 -25.34375 4.503906 -25.554688 4.078125 -25.984375 C 3.648438 -26.410156 3.4375 -26.929688 3.4375 -27.546875 C 3.4375 -28.140625 3.648438 -28.648438 4.078125 -29.078125 C 4.503906 -29.503906 5.023438 -29.71875 5.640625 -29.71875 C 6.234375 -29.71875 6.742188 -29.503906 7.171875 -29.078125 Z M 7.359375 0 L 3.921875 0 L 3.921875 -21.609375 L 7.359375 -21.609375 Z M 7.359375 0 "/></g></g></g><g fill="#1b1b1b" fill-opacity="1"><g transform="translate(365.008498, 924.255908)"><g><path d="M 0.984375 -18.421875 L 0.984375 -21.609375 L 6.390625 -21.609375 L 6.390625 -30 L 9.828125 -30 L 9.828125 -21.609375 L 15.171875 -21.609375 L 15.171875 -18.421875 L 9.828125 -18.421875 L 9.828125 0 L 6.390625 0 L 6.390625 -18.421875 Z M 0.984375 -18.421875 "/></g></g></g><g fill="#1b1b1b" fill-opacity="1"><g transform="translate(381.162919, 924.255908)"><g><path d="M 24.796875 -11.296875 L 24.796875 -9.484375 L 5.796875 -9.484375 C 6.117188 -7.609375 7.019531 -6.082031 8.5 -4.90625 C 10 -3.695312 11.664062 -3.09375 13.5 -3.09375 C 14.75 -3.09375 15.945312 -3.390625 17.09375 -3.984375 C 18.207031 -4.535156 19.140625 -5.316406 19.890625 -6.328125 L 23.8125 -6.328125 C 22.894531 -4.265625 21.519531 -2.644531 19.6875 -1.46875 C 17.820312 -0.257812 15.941406 0.34375 14.046875 0.34375 C 12.109375 0.34375 10.472656 0.046875 9.140625 -0.546875 C 7.765625 -1.128906 6.566406 -1.929688 5.546875 -2.953125 C 3.316406 -5.109375 2.203125 -7.757812 2.203125 -10.90625 C 2.203125 -14.007812 3.316406 -16.675781 5.546875 -18.90625 C 7.742188 -21.101562 10.394531 -22.203125 13.5 -22.203125 C 16.507812 -22.203125 19.144531 -21.132812 21.40625 -19 C 23.664062 -16.84375 24.796875 -14.273438 24.796875 -11.296875 Z M 21.171875 -12.421875 C 20.773438 -14.253906 19.859375 -15.773438 18.421875 -16.984375 C 16.972656 -18.171875 15.332031 -18.765625 13.5 -18.765625 C 10.6875 -18.765625 8.476562 -17.503906 6.875 -14.984375 C 6.382812 -14.191406 6.039062 -13.335938 5.84375 -12.421875 Z M 21.171875 -12.421875 "/></g></g></g><g fill="#1b1b1b" fill-opacity="1"><g transform="translate(407.923289, 924.255908)"><g><path d="M 6.828125 -3.09375 C 7.679688 -2.5 8.796875 -2.203125 10.171875 -2.203125 C 13.304688 -2.203125 14.875 -3.382812 14.875 -5.75 C 14.875 -7.125 13.742188 -8.171875 11.484375 -8.890625 C 10.535156 -9.210938 9.523438 -9.503906 8.453125 -9.765625 C 7.335938 -10.035156 6.304688 -10.378906 5.359375 -10.796875 C 4.242188 -11.328125 3.40625 -11.984375 2.84375 -12.765625 C 2.289062 -13.554688 2.015625 -14.488281 2.015625 -15.5625 C 2.015625 -17.726562 2.765625 -19.347656 4.265625 -20.421875 C 5.773438 -21.535156 7.578125 -22.09375 9.671875 -22.09375 C 11.765625 -22.09375 13.5 -21.671875 14.875 -20.828125 C 16.25 -19.972656 17.179688 -18.445312 17.671875 -16.25 L 14 -16.25 C 13.601562 -17.46875 13.03125 -18.269531 12.28125 -18.65625 C 11.5625 -19.050781 10.660156 -19.25 9.578125 -19.25 C 8.492188 -19.25 7.578125 -19.019531 6.828125 -18.5625 C 6.035156 -18.070312 5.640625 -17.351562 5.640625 -16.40625 C 5.640625 -15.414062 5.96875 -14.691406 6.625 -14.234375 C 7.25 -13.816406 8.035156 -13.441406 8.984375 -13.109375 C 9.929688 -12.816406 10.960938 -12.554688 12.078125 -12.328125 C 13.160156 -12.066406 14.191406 -11.707031 15.171875 -11.25 C 17.398438 -10.195312 18.515625 -8.507812 18.515625 -6.1875 C 18.515625 -3.863281 17.679688 -2.144531 16.015625 -1.03125 C 15.160156 -0.476562 14.222656 -0.0507812 13.203125 0.25 C 12.222656 0.507812 11.144531 0.640625 9.96875 0.640625 C 4.957031 0.640625 2.078125 -1.585938 1.328125 -6.046875 L 4.953125 -6.046875 C 5.316406 -4.628906 5.941406 -3.644531 6.828125 -3.09375 Z M 6.828125 -3.09375 "/></g></g></g><g fill="#1b1b1b" fill-opacity="1"><g transform="translate(427.662126, 924.255908)"><g/></g></g><g fill="#1b1b1b" fill-opacity="1"><g transform="translate(440.919556, 924.255908)"><g><path d="M 7.125 12.28125 L 3.6875 12.28125 L 3.6875 -21.609375 L 7.125 -21.609375 L 7.125 -17.921875 C 7.320312 -18.179688 7.535156 -18.425781 7.765625 -18.65625 C 9.785156 -20.945312 12.285156 -22.09375 15.265625 -22.09375 C 18.242188 -22.09375 20.765625 -20.945312 22.828125 -18.65625 C 24.796875 -16.4375 25.78125 -13.816406 25.78125 -10.796875 C 25.78125 -7.785156 24.796875 -5.171875 22.828125 -2.953125 C 20.765625 -0.660156 18.242188 0.484375 15.265625 0.484375 C 12.285156 0.484375 9.785156 -0.660156 7.765625 -2.953125 C 7.535156 -3.179688 7.320312 -3.425781 7.125 -3.6875 Z M 22.34375 -10.796875 C 22.34375 -12.898438 21.625 -14.734375 20.1875 -16.296875 C 18.707031 -17.867188 16.890625 -18.65625 14.734375 -18.65625 C 12.566406 -18.65625 10.765625 -17.867188 9.328125 -16.296875 C 7.859375 -14.734375 7.125 -12.898438 7.125 -10.796875 C 7.125 -8.703125 7.859375 -6.867188 9.328125 -5.296875 C 10.765625 -3.734375 12.566406 -2.953125 14.734375 -2.953125 C 16.890625 -2.953125 18.707031 -3.734375 20.1875 -5.296875 C 21.625 -6.867188 22.34375 -8.703125 22.34375 -10.796875 Z M 22.34375 -10.796875 "/></g></g></g><g fill="#1b1b1b" fill-opacity="1"><g transform="translate(468.907465, 924.255908)"><g><path d="M 14.78125 -17.140625 C 14 -17.859375 13.148438 -18.21875 12.234375 -18.21875 C 11.347656 -18.21875 10.59375 -17.972656 9.96875 -17.484375 C 9.3125 -16.960938 8.769531 -16.335938 8.34375 -15.609375 C 7.53125 -14.171875 7.125 -12.566406 7.125 -10.796875 L 7.125 0 L 3.6875 0 L 3.6875 -21.609375 L 7.125 -21.609375 L 7.125 -17.140625 L 7.265625 -18.015625 C 8.410156 -20.703125 10.195312 -22.046875 12.625 -22.046875 C 13.375 -22.046875 14.09375 -21.898438 14.78125 -21.609375 Z M 14.78125 -17.140625 "/></g></g></g><g fill="#1b1b1b" fill-opacity="1"><g transform="translate(484.178059, 924.255908)"><g><path d="M 21.359375 -10.90625 C 21.359375 -13.0625 20.585938 -14.910156 19.046875 -16.453125 C 17.515625 -17.992188 15.664062 -18.765625 13.5 -18.765625 C 11.34375 -18.765625 9.492188 -17.992188 7.953125 -16.453125 C 6.410156 -14.910156 5.640625 -13.0625 5.640625 -10.90625 C 5.640625 -8.769531 6.410156 -6.9375 7.953125 -5.40625 C 9.492188 -3.863281 11.34375 -3.09375 13.5 -3.09375 C 15.664062 -3.09375 17.515625 -3.863281 19.046875 -5.40625 C 20.585938 -6.9375 21.359375 -8.769531 21.359375 -10.90625 Z M 24.796875 -10.90625 C 24.796875 -7.757812 23.703125 -5.109375 21.515625 -2.953125 C 19.253906 -0.753906 16.582031 0.34375 13.5 0.34375 C 10.425781 0.34375 7.773438 -0.753906 5.546875 -2.953125 C 3.316406 -5.109375 2.203125 -7.757812 2.203125 -10.90625 C 2.203125 -14.007812 3.316406 -16.675781 5.546875 -18.90625 C 7.742188 -21.101562 10.394531 -22.203125 13.5 -22.203125 C 16.613281 -22.203125 19.285156 -21.101562 21.515625 -18.90625 C 23.703125 -16.675781 24.796875 -14.007812 24.796875 -10.90625 Z M 24.796875 -10.90625 "/></g></g></g><g fill="#1b1b1b" fill-opacity="1"><g transform="translate(511.183927, 924.255908)"><g><path d="M 15.265625 -33.640625 L 12.328125 -33.640625 C 11.179688 -33.640625 10.425781 -33.378906 10.0625 -32.859375 C 9.707031 -32.328125 9.53125 -31.6875 9.53125 -30.9375 L 9.53125 -21.609375 L 15.265625 -21.609375 L 15.265625 -18.421875 L 9.53125 -18.421875 L 9.53125 0 L 6.09375 0 L 6.09375 -18.421875 L 1.71875 -18.421875 L 1.71875 -21.609375 L 6.09375 -21.609375 L 6.09375 -29.953125 C 6.09375 -32.148438 6.613281 -33.851562 7.65625 -35.0625 C 8.675781 -36.238281 10.394531 -36.828125 12.8125 -36.828125 L 15.265625 -36.828125 Z M 15.265625 -33.640625 "/></g></g></g><g fill="#1b1b1b" fill-opacity="1"><g transform="translate(527.927571, 924.255908)"><g><path d="M 7.171875 -29.078125 C 7.597656 -28.648438 7.8125 -28.140625 7.8125 -27.546875 C 7.8125 -26.929688 7.597656 -26.410156 7.171875 -25.984375 C 6.742188 -25.554688 6.234375 -25.34375 5.640625 -25.34375 C 5.023438 -25.34375 4.503906 -25.554688 4.078125 -25.984375 C 3.648438 -26.410156 3.4375 -26.929688 3.4375 -27.546875 C 3.4375 -28.140625 3.648438 -28.648438 4.078125 -29.078125 C 4.503906 -29.503906 5.023438 -29.71875 5.640625 -29.71875 C 6.234375 -29.71875 6.742188 -29.503906 7.171875 -29.078125 Z M 7.359375 0 L 3.921875 0 L 3.921875 -21.609375 L 7.359375 -21.609375 Z M 7.359375 0 "/></g></g></g><g fill="#1b1b1b" fill-opacity="1"><g transform="translate(539.171848, 924.255908)"><g><path d="M 6.828125 -3.09375 C 7.679688 -2.5 8.796875 -2.203125 10.171875 -2.203125 C 13.304688 -2.203125 14.875 -3.382812 14.875 -5.75 C 14.875 -7.125 13.742188 -8.171875 11.484375 -8.890625 C 10.535156 -9.210938 9.523438 -9.503906 8.453125 -9.765625 C 7.335938 -10.035156 6.304688 -10.378906 5.359375 -10.796875 C 4.242188 -11.328125 3.40625 -11.984375 2.84375 -12.765625 C 2.289062 -13.554688 2.015625 -14.488281 2.015625 -15.5625 C 2.015625 -17.726562 2.765625 -19.347656 4.265625 -20.421875 C 5.773438 -21.535156 7.578125 -22.09375 9.671875 -22.09375 C 11.765625 -22.09375 13.5 -21.671875 14.875 -20.828125 C 16.25 -19.972656 17.179688 -18.445312 17.671875 -16.25 L 14 -16.25 C 13.601562 -17.46875 13.03125 -18.269531 12.28125 -18.65625 C 11.5625 -19.050781 10.660156 -19.25 9.578125 -19.25 C 8.492188 -19.25 7.578125 -19.019531 6.828125 -18.5625 C 6.035156 -18.070312 5.640625 -17.351562 5.640625 -16.40625 C 5.640625 -15.414062 5.96875 -14.691406 6.625 -14.234375 C 7.25 -13.816406 8.035156 -13.441406 8.984375 -13.109375 C 9.929688 -12.816406 10.960938 -12.554688 12.078125 -12.328125 C 13.160156 -12.066406 14.191406 -11.707031 15.171875 -11.25 C 17.398438 -10.195312 18.515625 -8.507812 18.515625 -6.1875 C 18.515625 -3.863281 17.679688 -2.144531 16.015625 -1.03125 C 15.160156 -0.476562 14.222656 -0.0507812 13.203125 0.25 C 12.222656 0.507812 11.144531 0.640625 9.96875 0.640625 C 4.957031 0.640625 2.078125 -1.585938 1.328125 -6.046875 L 4.953125 -6.046875 C 5.316406 -4.628906 5.941406 -3.644531 6.828125 -3.09375 Z M 6.828125 -3.09375 "/></g></g></g><g fill="#1b1b1b" fill-opacity="1"><g transform="translate(558.910661, 924.255908)"><g><path d="M 6.828125 -3.09375 C 7.679688 -2.5 8.796875 -2.203125 10.171875 -2.203125 C 13.304688 -2.203125 14.875 -3.382812 14.875 -5.75 C 14.875 -7.125 13.742188 -8.171875 11.484375 -8.890625 C 10.535156 -9.210938 9.523438 -9.503906 8.453125 -9.765625 C 7.335938 -10.035156 6.304688 -10.378906 5.359375 -10.796875 C 4.242188 -11.328125 3.40625 -11.984375 2.84375 -12.765625 C 2.289062 -13.554688 2.015625 -14.488281 2.015625 -15.5625 C 2.015625 -17.726562 2.765625 -19.347656 4.265625 -20.421875 C 5.773438 -21.535156 7.578125 -22.09375 9.671875 -22.09375 C 11.765625 -22.09375 13.5 -21.671875 14.875 -20.828125 C 16.25 -19.972656 17.179688 -18.445312 17.671875 -16.25 L 14 -16.25 C 13.601562 -17.46875 13.03125 -18.269531 12.28125 -18.65625 C 11.5625 -19.050781 10.660156 -19.25 9.578125 -19.25 C 8.492188 -19.25 7.578125 -19.019531 6.828125 -18.5625 C 6.035156 -18.070312 5.640625 -17.351562 5.640625 -16.40625 C 5.640625 -15.414062 5.96875 -14.691406 6.625 -14.234375 C 7.25 -13.816406 8.035156 -13.441406 8.984375 -13.109375 C 9.929688 -12.816406 10.960938 -12.554688 12.078125 -12.328125 C 13.160156 -12.066406 14.191406 -11.707031 15.171875 -11.25 C 17.398438 -10.195312 18.515625 -8.507812 18.515625 -6.1875 C 18.515625 -3.863281 17.679688 -2.144531 16.015625 -1.03125 C 15.160156 -0.476562 14.222656 -0.0507812 13.203125 0.25 C 12.222656 0.507812 11.144531 0.640625 9.96875 0.640625 C 4.957031 0.640625 2.078125 -1.585938 1.328125 -6.046875 L 4.953125 -6.046875 C 5.316406 -4.628906 5.941406 -3.644531 6.828125 -3.09375 Z M 6.828125 -3.09375 "/></g></g></g><g fill="#1b1b1b" fill-opacity="1"><g transform="translate(578.64952, 924.255908)"><g><path d="M 7.171875 -29.078125 C 7.597656 -28.648438 7.8125 -28.140625 7.8125 -27.546875 C 7.8125 -26.929688 7.597656 -26.410156 7.171875 -25.984375 C 6.742188 -25.554688 6.234375 -25.34375 5.640625 -25.34375 C 5.023438 -25.34375 4.503906 -25.554688 4.078125 -25.984375 C 3.648438 -26.410156 3.4375 -26.929688 3.4375 -27.546875 C 3.4375 -28.140625 3.648438 -28.648438 4.078125 -29.078125 C 4.503906 -29.503906 5.023438 -29.71875 5.640625 -29.71875 C 6.234375 -29.71875 6.742188 -29.503906 7.171875 -29.078125 Z M 7.359375 0 L 3.921875 0 L 3.921875 -21.609375 L 7.359375 -21.609375 Z M 7.359375 0 "/></g></g></g><g fill="#1b1b1b" fill-opacity="1"><g transform="translate(589.893774, 924.255908)"><g><path d="M 21.359375 -10.90625 C 21.359375 -13.0625 20.585938 -14.910156 19.046875 -16.453125 C 17.515625 -17.992188 15.664062 -18.765625 13.5 -18.765625 C 11.34375 -18.765625 9.492188 -17.992188 7.953125 -16.453125 C 6.410156 -14.910156 5.640625 -13.0625 5.640625 -10.90625 C 5.640625 -8.769531 6.410156 -6.9375 7.953125 -5.40625 C 9.492188 -3.863281 11.34375 -3.09375 13.5 -3.09375 C 15.664062 -3.09375 17.515625 -3.863281 19.046875 -5.40625 C 20.585938 -6.9375 21.359375 -8.769531 21.359375 -10.90625 Z M 24.796875 -10.90625 C 24.796875 -7.757812 23.703125 -5.109375 21.515625 -2.953125 C 19.253906 -0.753906 16.582031 0.34375 13.5 0.34375 C 10.425781 0.34375 7.773438 -0.753906 5.546875 -2.953125 C 3.316406 -5.109375 2.203125 -7.757812 2.203125 -10.90625 C 2.203125 -14.007812 3.316406 -16.675781 5.546875 -18.90625 C 7.742188 -21.101562 10.394531 -22.203125 13.5 -22.203125 C 16.613281 -22.203125 19.285156 -21.101562 21.515625 -18.90625 C 23.703125 -16.675781 24.796875 -14.007812 24.796875 -10.90625 Z M 24.796875 -10.90625 "/></g></g></g><g fill="#1b1b1b" fill-opacity="1"><g transform="translate(616.899654, 924.255908)"><g><path d="M 18.609375 0 L 18.609375 -13.5 C 18.609375 -14.90625 18.296875 -16.117188 17.671875 -17.140625 C 17.023438 -18.117188 15.960938 -18.609375 14.484375 -18.609375 C 13.015625 -18.609375 11.820312 -18.332031 10.90625 -17.78125 C 9.988281 -17.21875 9.25 -16.492188 8.6875 -15.609375 C 7.644531 -13.972656 7.125 -11.78125 7.125 -9.03125 L 7.125 0 L 3.6875 0 L 3.6875 -21.609375 L 7.125 -21.609375 L 7.125 -17.875 C 7.84375 -19.082031 8.757812 -20.082031 9.875 -20.875 C 11.050781 -21.65625 12.410156 -22.046875 13.953125 -22.046875 C 15.484375 -22.046875 16.722656 -21.832031 17.671875 -21.40625 C 18.628906 -20.945312 19.429688 -20.34375 20.078125 -19.59375 C 21.390625 -18.050781 22.046875 -16.019531 22.046875 -13.5 L 22.046875 0 Z M 18.609375 0 "/></g></g></g><g fill="#1b1b1b" fill-opacity="1"><g transform="translate(641.892358, 924.255908)"><g><path d="M 20.875 -10.796875 C 20.875 -12.898438 20.148438 -14.734375 18.703125 -16.296875 C 17.234375 -17.867188 15.421875 -18.65625 13.265625 -18.65625 C 11.097656 -18.65625 9.296875 -17.867188 7.859375 -16.296875 C 6.378906 -14.734375 5.640625 -12.898438 5.640625 -10.796875 C 5.640625 -8.703125 6.378906 -6.867188 7.859375 -5.296875 C 9.296875 -3.734375 11.097656 -2.953125 13.265625 -2.953125 C 15.421875 -2.953125 17.234375 -3.734375 18.703125 -5.296875 C 20.148438 -6.867188 20.875 -8.703125 20.875 -10.796875 Z M 24.3125 0 L 20.875 0 L 20.875 -3.6875 C 20.675781 -3.425781 20.476562 -3.179688 20.28125 -2.953125 C 18.21875 -0.660156 15.695312 0.484375 12.71875 0.484375 C 9.738281 0.484375 7.234375 -0.660156 5.203125 -2.953125 C 3.203125 -5.171875 2.203125 -7.785156 2.203125 -10.796875 C 2.203125 -13.816406 3.203125 -16.4375 5.203125 -18.65625 C 7.234375 -20.945312 9.738281 -22.09375 12.71875 -22.09375 C 15.695312 -22.09375 18.21875 -20.945312 20.28125 -18.65625 C 20.476562 -18.425781 20.675781 -18.179688 20.875 -17.921875 L 20.875 -21.609375 L 24.3125 -21.609375 Z M 24.3125 0 "/></g></g></g><g fill="#1b1b1b" fill-opacity="1"><g transform="translate(669.880256, 924.255908)"><g><path d="M 7.171875 -29.078125 C 7.597656 -28.648438 7.8125 -28.140625 7.8125 -27.546875 C 7.8125 -26.929688 7.597656 -26.410156 7.171875 -25.984375 C 6.742188 -25.554688 6.234375 -25.34375 5.640625 -25.34375 C 5.023438 -25.34375 4.503906 -25.554688 4.078125 -25.984375 C 3.648438 -26.410156 3.4375 -26.929688 3.4375 -27.546875 C 3.4375 -28.140625 3.648438 -28.648438 4.078125 -29.078125 C 4.503906 -29.503906 5.023438 -29.71875 5.640625 -29.71875 C 6.234375 -29.71875 6.742188 -29.503906 7.171875 -29.078125 Z M 7.359375 0 L 3.921875 0 L 3.921875 -21.609375 L 7.359375 -21.609375 Z M 7.359375 0 "/></g></g></g><g fill="#1b1b1b" fill-opacity="1"><g transform="translate(681.124533, 924.255908)"><g><path d="M 6.828125 -3.09375 C 7.679688 -2.5 8.796875 -2.203125 10.171875 -2.203125 C 13.304688 -2.203125 14.875 -3.382812 14.875 -5.75 C 14.875 -7.125 13.742188 -8.171875 11.484375 -8.890625 C 10.535156 -9.210938 9.523438 -9.503906 8.453125 -9.765625 C 7.335938 -10.035156 6.304688 -10.378906 5.359375 -10.796875 C 4.242188 -11.328125 3.40625 -11.984375 2.84375 -12.765625 C 2.289062 -13.554688 2.015625 -14.488281 2.015625 -15.5625 C 2.015625 -17.726562 2.765625 -19.347656 4.265625 -20.421875 C 5.773438 -21.535156 7.578125 -22.09375 9.671875 -22.09375 C 11.765625 -22.09375 13.5 -21.671875 14.875 -20.828125 C 16.25 -19.972656 17.179688 -18.445312 17.671875 -16.25 L 14 -16.25 C 13.601562 -17.46875 13.03125 -18.269531 12.28125 -18.65625 C 11.5625 -19.050781 10.660156 -19.25 9.578125 -19.25 C 8.492188 -19.25 7.578125 -19.019531 6.828125 -18.5625 C 6.035156 -18.070312 5.640625 -17.351562 5.640625 -16.40625 C 5.640625 -15.414062 5.96875 -14.691406 6.625 -14.234375 C 7.25 -13.816406 8.035156 -13.441406 8.984375 -13.109375 C 9.929688 -12.816406 10.960938 -12.554688 12.078125 -12.328125 C 13.160156 -12.066406 14.191406 -11.707031 15.171875 -11.25 C 17.398438 -10.195312 18.515625 -8.507812 18.515625 -6.1875 C 18.515625 -3.863281 17.679688 -2.144531 16.015625 -1.03125 C 15.160156 -0.476562 14.222656 -0.0507812 13.203125 0.25 C 12.222656 0.507812 11.144531 0.640625 9.96875 0.640625 C 4.957031 0.640625 2.078125 -1.585938 1.328125 -6.046875 L 4.953125 -6.046875 C 5.316406 -4.628906 5.941406 -3.644531 6.828125 -3.09375 Z M 6.828125 -3.09375 "/></g></g></g><g fill="#1b1b1b" fill-opacity="1"><g transform="translate(700.863346, 924.255908)"><g/></g></g><g fill="#1b1b1b" fill-opacity="1"><g transform="translate(714.120776, 924.255908)"><g><path d="M 20.875 -10.796875 C 20.875 -12.898438 20.148438 -14.734375 18.703125 -16.296875 C 17.234375 -17.867188 15.421875 -18.65625 13.265625 -18.65625 C 11.097656 -18.65625 9.296875 -17.867188 7.859375 -16.296875 C 6.378906 -14.734375 5.640625 -12.898438 5.640625 -10.796875 C 5.640625 -8.703125 6.378906 -6.867188 7.859375 -5.296875 C 9.296875 -3.734375 11.097656 -2.953125 13.265625 -2.953125 C 15.421875 -2.953125 17.234375 -3.734375 18.703125 -5.296875 C 20.148438 -6.867188 20.875 -8.703125 20.875 -10.796875 Z M 24.3125 12.28125 L 20.875 12.28125 L 20.875 -3.6875 C 20.675781 -3.425781 20.476562 -3.179688 20.28125 -2.953125 C 18.21875 -0.660156 15.695312 0.484375 12.71875 0.484375 C 9.738281 0.484375 7.234375 -0.660156 5.203125 -2.953125 C 3.203125 -5.171875 2.203125 -7.785156 2.203125 -10.796875 C 2.203125 -13.816406 3.203125 -16.4375 5.203125 -18.65625 C 7.234375 -20.945312 9.738281 -22.09375 12.71875 -22.09375 C 15.695312 -22.09375 18.21875 -20.945312 20.28125 -18.65625 C 20.476562 -18.425781 20.675781 -18.179688 20.875 -17.921875 L 20.875 -21.609375 L 24.3125 -21.609375 Z M 24.3125 12.28125 "/></g></g></g><g fill="#1b1b1b" fill-opacity="1"><g transform="translate(742.108674, 924.255908)"><g><path d="M 18.609375 -3.6875 C 17.003906 -0.9375 14.597656 0.4375 11.390625 0.4375 C 8.972656 0.4375 7.078125 -0.363281 5.703125 -1.96875 C 4.359375 -3.570312 3.6875 -5.617188 3.6875 -8.109375 L 3.6875 -21.609375 L 7.125 -21.609375 L 7.125 -8.109375 C 7.125 -6.691406 7.453125 -5.492188 8.109375 -4.515625 C 8.722656 -3.503906 9.769531 -3 11.25 -3 C 13.925781 -3 15.820312 -3.847656 16.9375 -5.546875 C 18.050781 -7.210938 18.609375 -9.554688 18.609375 -12.578125 L 18.609375 -21.609375 L 22.046875 -21.609375 L 22.046875 0 L 18.609375 0 Z M 18.609375 -3.6875 "/></g></g></g><g fill="#1b1b1b" fill-opacity="1"><g transform="translate(767.101378, 924.255908)"><g><path d="M 24.796875 -11.296875 L 24.796875 -9.484375 L 5.796875 -9.484375 C 6.117188 -7.609375 7.019531 -6.082031 8.5 -4.90625 C 10 -3.695312 11.664062 -3.09375 13.5 -3.09375 C 14.75 -3.09375 15.945312 -3.390625 17.09375 -3.984375 C 18.207031 -4.535156 19.140625 -5.316406 19.890625 -6.328125 L 23.8125 -6.328125 C 22.894531 -4.265625 21.519531 -2.644531 19.6875 -1.46875 C 17.820312 -0.257812 15.941406 0.34375 14.046875 0.34375 C 12.109375 0.34375 10.472656 0.046875 9.140625 -0.546875 C 7.765625 -1.128906 6.566406 -1.929688 5.546875 -2.953125 C 3.316406 -5.109375 2.203125 -7.757812 2.203125 -10.90625 C 2.203125 -14.007812 3.316406 -16.675781 5.546875 -18.90625 C 7.742188 -21.101562 10.394531 -22.203125 13.5 -22.203125 C 16.507812 -22.203125 19.144531 -21.132812 21.40625 -19 C 23.664062 -16.84375 24.796875 -14.273438 24.796875 -11.296875 Z M 21.171875 -12.421875 C 20.773438 -14.253906 19.859375 -15.773438 18.421875 -16.984375 C 16.972656 -18.171875 15.332031 -18.765625 13.5 -18.765625 C 10.6875 -18.765625 8.476562 -17.503906 6.875 -14.984375 C 6.382812 -14.191406 6.039062 -13.335938 5.84375 -12.421875 Z M 21.171875 -12.421875 "/></g></g></g><g fill="#1b1b1b" fill-opacity="1"><g transform="translate(793.861782, 924.255908)"><g/></g></g><g fill="#1b1b1b" fill-opacity="1"><g transform="translate(807.119212, 924.255908)"><g><path d="M 21.171875 -10.796875 C 21.171875 -12.898438 20.445312 -14.734375 19 -16.296875 C 17.53125 -17.867188 15.710938 -18.65625 13.546875 -18.65625 C 11.453125 -18.65625 9.65625 -17.867188 8.15625 -16.296875 C 6.675781 -14.765625 5.9375 -12.929688 5.9375 -10.796875 C 5.9375 -8.671875 6.675781 -6.835938 8.15625 -5.296875 C 9.65625 -3.734375 11.453125 -2.953125 13.546875 -2.953125 C 15.710938 -2.953125 17.53125 -3.734375 19 -5.296875 C 20.445312 -6.867188 21.171875 -8.703125 21.171875 -10.796875 Z M 5.84375 2.953125 C 6.164062 4.285156 6.867188 5.476562 7.953125 6.53125 C 9.460938 8.070312 11.28125 8.84375 13.40625 8.84375 C 15.53125 8.84375 17.363281 8.070312 18.90625 6.53125 C 20.414062 5.019531 21.171875 3.203125 21.171875 1.078125 L 21.171875 -3.640625 C 21.003906 -3.410156 20.820312 -3.179688 20.625 -2.953125 C 18.5625 -0.660156 16.039062 0.484375 13.0625 0.484375 C 10.050781 0.484375 7.53125 -0.660156 5.5 -2.953125 C 3.5 -5.171875 2.5 -7.785156 2.5 -10.796875 C 2.5 -13.816406 3.5 -16.4375 5.5 -18.65625 C 7.53125 -20.945312 10.050781 -22.09375 13.0625 -22.09375 C 15.945312 -22.09375 18.46875 -20.945312 20.625 -18.65625 C 20.820312 -18.425781 21.003906 -18.195312 21.171875 -17.96875 L 21.171875 -21.609375 L 24.609375 -21.609375 L 24.609375 1.078125 C 24.609375 4.160156 23.507812 6.796875 21.3125 8.984375 C 19.113281 11.179688 16.476562 12.28125 13.40625 12.28125 C 10.332031 12.28125 7.695312 11.179688 5.5 8.984375 C 3.757812 7.253906 2.710938 5.242188 2.359375 2.953125 Z M 5.84375 2.953125 "/></g></g></g><g fill="#1b1b1b" fill-opacity="1"><g transform="translate(835.401726, 924.255908)"><g><path d="M 24.796875 -11.296875 L 24.796875 -9.484375 L 5.796875 -9.484375 C 6.117188 -7.609375 7.019531 -6.082031 8.5 -4.90625 C 10 -3.695312 11.664062 -3.09375 13.5 -3.09375 C 14.75 -3.09375 15.945312 -3.390625 17.09375 -3.984375 C 18.207031 -4.535156 19.140625 -5.316406 19.890625 -6.328125 L 23.8125 -6.328125 C 22.894531 -4.265625 21.519531 -2.644531 19.6875 -1.46875 C 17.820312 -0.257812 15.941406 0.34375 14.046875 0.34375 C 12.109375 0.34375 10.472656 0.046875 9.140625 -0.546875 C 7.765625 -1.128906 6.566406 -1.929688 5.546875 -2.953125 C 3.316406 -5.109375 2.203125 -7.757812 2.203125 -10.90625 C 2.203125 -14.007812 3.316406 -16.675781 5.546875 -18.90625 C 7.742188 -21.101562 10.394531 -22.203125 13.5 -22.203125 C 16.507812 -22.203125 19.144531 -21.132812 21.40625 -19 C 23.664062 -16.84375 24.796875 -14.273438 24.796875 -11.296875 Z M 21.171875 -12.421875 C 20.773438 -14.253906 19.859375 -15.773438 18.421875 -16.984375 C 16.972656 -18.171875 15.332031 -18.765625 13.5 -18.765625 C 10.6875 -18.765625 8.476562 -17.503906 6.875 -14.984375 C 6.382812 -14.191406 6.039062 -13.335938 5.84375 -12.421875 Z M 21.171875 -12.421875 "/></g></g></g><g fill="#1b1b1b" fill-opacity="1"><g transform="translate(862.162084, 924.255908)"><g><path d="M 14.78125 -17.140625 C 14 -17.859375 13.148438 -18.21875 12.234375 -18.21875 C 11.347656 -18.21875 10.59375 -17.972656 9.96875 -17.484375 C 9.3125 -16.960938 8.769531 -16.335938 8.34375 -15.609375 C 7.53125 -14.171875 7.125 -12.566406 7.125 -10.796875 L 7.125 0 L 3.6875 0 L 3.6875 -21.609375 L 7.125 -21.609375 L 7.125 -17.140625 L 7.265625 -18.015625 C 8.410156 -20.703125 10.195312 -22.046875 12.625 -22.046875 C 13.375 -22.046875 14.09375 -21.898438 14.78125 -21.609375 Z M 14.78125 -17.140625 "/></g></g></g><g fill="#1b1b1b" fill-opacity="1"><g transform="translate(877.432667, 924.255908)"><g><path d="M 20.875 -10.796875 C 20.875 -12.898438 20.148438 -14.734375 18.703125 -16.296875 C 17.234375 -17.867188 15.421875 -18.65625 13.265625 -18.65625 C 11.097656 -18.65625 9.296875 -17.867188 7.859375 -16.296875 C 6.378906 -14.734375 5.640625 -12.898438 5.640625 -10.796875 C 5.640625 -8.703125 6.378906 -6.867188 7.859375 -5.296875 C 9.296875 -3.734375 11.097656 -2.953125 13.265625 -2.953125 C 15.421875 -2.953125 17.234375 -3.734375 18.703125 -5.296875 C 20.148438 -6.867188 20.875 -8.703125 20.875 -10.796875 Z M 24.3125 0 L 20.875 0 L 20.875 -3.6875 C 20.675781 -3.425781 20.476562 -3.179688 20.28125 -2.953125 C 18.21875 -0.660156 15.695312 0.484375 12.71875 0.484375 C 9.738281 0.484375 7.234375 -0.660156 5.203125 -2.953125 C 3.203125 -5.171875 2.203125 -7.785156 2.203125 -10.796875 C 2.203125 -13.816406 3.203125 -16.4375 5.203125 -18.65625 C 7.234375 -20.945312 9.738281 -22.09375 12.71875 -22.09375 C 15.695312 -22.09375 18.21875 -20.945312 20.28125 -18.65625 C 20.476562 -18.425781 20.675781 -18.179688 20.875 -17.921875 L 20.875 -21.609375 L 24.3125 -21.609375 Z M 24.3125 0 "/></g></g></g><g fill="#1b1b1b" fill-opacity="1"><g transform="translate(905.420611, 924.255908)"><g><path d="M 31.09375 -0.09375 L 31.09375 -13.609375 C 31.09375 -15.828125 30.382812 -17.394531 28.96875 -18.3125 C 28.476562 -18.613281 27.726562 -18.765625 26.71875 -18.765625 C 25.695312 -18.765625 24.75 -18.46875 23.875 -17.875 C 22.988281 -17.28125 22.28125 -16.523438 21.75 -15.609375 C 21.550781 -15.253906 21.375 -14.863281 21.21875 -14.4375 C 21.21875 -14.175781 21.21875 -13.898438 21.21875 -13.609375 L 21.21875 -0.09375 L 17.78125 -0.09375 L 17.78125 -13.609375 C 17.78125 -15.828125 17.078125 -17.394531 15.671875 -18.3125 C 15.171875 -18.613281 14.414062 -18.765625 13.40625 -18.765625 C 12.394531 -18.765625 11.445312 -18.46875 10.5625 -17.875 C 9.675781 -17.28125 8.972656 -16.523438 8.453125 -15.609375 C 7.765625 -14.398438 7.320312 -12.910156 7.125 -11.140625 L 7.125 -0.09375 L 3.6875 -0.09375 L 3.6875 -21.703125 L 7.125 -21.703125 L 7.125 -18.265625 C 7.78125 -19.378906 8.597656 -20.28125 9.578125 -20.96875 C 10.691406 -21.789062 12 -22.203125 13.5 -22.203125 C 15.007812 -22.203125 16.222656 -21.972656 17.140625 -21.515625 C 18.054688 -21.015625 18.828125 -20.375 19.453125 -19.59375 C 19.773438 -19.132812 20.066406 -18.628906 20.328125 -18.078125 C 20.984375 -19.253906 21.835938 -20.21875 22.890625 -20.96875 C 24.003906 -21.789062 25.3125 -22.203125 26.8125 -22.203125 C 28.320312 -22.203125 29.535156 -21.972656 30.453125 -21.515625 C 31.367188 -21.015625 32.132812 -20.375 32.75 -19.59375 C 33.9375 -18.050781 34.53125 -16.054688 34.53125 -13.609375 L 34.53125 -0.09375 Z M 31.09375 -0.09375 "/></g></g></g><g fill="#1b1b1b" fill-opacity="1"><g transform="translate(942.885085, 924.255908)"><g/></g></g><g fill="#1b1b1b" fill-opacity="1"><g transform="translate(956.142515, 924.255908)"><g><path d="M 14.78125 -17.140625 C 14 -17.859375 13.148438 -18.21875 12.234375 -18.21875 C 11.347656 -18.21875 10.59375 -17.972656 9.96875 -17.484375 C 9.3125 -16.960938 8.769531 -16.335938 8.34375 -15.609375 C 7.53125 -14.171875 7.125 -12.566406 7.125 -10.796875 L 7.125 0 L 3.6875 0 L 3.6875 -21.609375 L 7.125 -21.609375 L 7.125 -17.140625 L 7.265625 -18.015625 C 8.410156 -20.703125 10.195312 -22.046875 12.625 -22.046875 C 13.375 -22.046875 14.09375 -21.898438 14.78125 -21.609375 Z M 14.78125 -17.140625 "/></g></g></g><g fill="#1b1b1b" fill-opacity="1"><g transform="translate(971.413098, 924.255908)"><g><path d="M 24.796875 -11.296875 L 24.796875 -9.484375 L 5.796875 -9.484375 C 6.117188 -7.609375 7.019531 -6.082031 8.5 -4.90625 C 10 -3.695312 11.664062 -3.09375 13.5 -3.09375 C 14.75 -3.09375 15.945312 -3.390625 17.09375 -3.984375 C 18.207031 -4.535156 19.140625 -5.316406 19.890625 -6.328125 L 23.8125 -6.328125 C 22.894531 -4.265625 21.519531 -2.644531 19.6875 -1.46875 C 17.820312 -0.257812 15.941406 0.34375 14.046875 0.34375 C 12.109375 0.34375 10.472656 0.046875 9.140625 -0.546875 C 7.765625 -1.128906 6.566406 -1.929688 5.546875 -2.953125 C 3.316406 -5.109375 2.203125 -7.757812 2.203125 -10.90625 C 2.203125 -14.007812 3.316406 -16.675781 5.546875 -18.90625 C 7.742188 -21.101562 10.394531 -22.203125 13.5 -22.203125 C 16.507812 -22.203125 19.144531 -21.132812 21.40625 -19 C 23.664062 -16.84375 24.796875 -14.273438 24.796875 -11.296875 Z M 21.171875 -12.421875 C 20.773438 -14.253906 19.859375 -15.773438 18.421875 -16.984375 C 16.972656 -18.171875 15.332031 -18.765625 13.5 -18.765625 C 10.6875 -18.765625 8.476562 -17.503906 6.875 -14.984375 C 6.382812 -14.191406 6.039062 -13.335938 5.84375 -12.421875 Z M 21.171875 -12.421875 "/></g></g></g><g fill="#1b1b1b" fill-opacity="1"><g transform="translate(998.173502, 924.255908)"><g><path d="M 6.828125 -3.09375 C 7.679688 -2.5 8.796875 -2.203125 10.171875 -2.203125 C 13.304688 -2.203125 14.875 -3.382812 14.875 -5.75 C 14.875 -7.125 13.742188 -8.171875 11.484375 -8.890625 C 10.535156 -9.210938 9.523438 -9.503906 8.453125 -9.765625 C 7.335938 -10.035156 6.304688 -10.378906 5.359375 -10.796875 C 4.242188 -11.328125 3.40625 -11.984375 2.84375 -12.765625 C 2.289062 -13.554688 2.015625 -14.488281 2.015625 -15.5625 C 2.015625 -17.726562 2.765625 -19.347656 4.265625 -20.421875 C 5.773438 -21.535156 7.578125 -22.09375 9.671875 -22.09375 C 11.765625 -22.09375 13.5 -21.671875 14.875 -20.828125 C 16.25 -19.972656 17.179688 -18.445312 17.671875 -16.25 L 14 -16.25 C 13.601562 -17.46875 13.03125 -18.269531 12.28125 -18.65625 C 11.5625 -19.050781 10.660156 -19.25 9.578125 -19.25 C 8.492188 -19.25 7.578125 -19.019531 6.828125 -18.5625 C 6.035156 -18.070312 5.640625 -17.351562 5.640625 -16.40625 C 5.640625 -15.414062 5.96875 -14.691406 6.625 -14.234375 C 7.25 -13.816406 8.035156 -13.441406 8.984375 -13.109375 C 9.929688 -12.816406 10.960938 -12.554688 12.078125 -12.328125 C 13.160156 -12.066406 14.191406 -11.707031 15.171875 -11.25 C 17.398438 -10.195312 18.515625 -8.507812 18.515625 -6.1875 C 18.515625 -3.863281 17.679688 -2.144531 16.015625 -1.03125 C 15.160156 -0.476562 14.222656 -0.0507812 13.203125 0.25 C 12.222656 0.507812 11.144531 0.640625 9.96875 0.640625 C 4.957031 0.640625 2.078125 -1.585938 1.328125 -6.046875 L 4.953125 -6.046875 C 5.316406 -4.628906 5.941406 -3.644531 6.828125 -3.09375 Z M 6.828125 -3.09375 "/></g></g></g><g fill="#1b1b1b" fill-opacity="1"><g transform="translate(1017.912316, 924.255908)"><g><path d="M 18.609375 -3.6875 C 17.003906 -0.9375 14.597656 0.4375 11.390625 0.4375 C 8.972656 0.4375 7.078125 -0.363281 5.703125 -1.96875 C 4.359375 -3.570312 3.6875 -5.617188 3.6875 -8.109375 L 3.6875 -21.609375 L 7.125 -21.609375 L 7.125 -8.109375 C 7.125 -6.691406 7.453125 -5.492188 8.109375 -4.515625 C 8.722656 -3.503906 9.769531 -3 11.25 -3 C 13.925781 -3 15.820312 -3.847656 16.9375 -5.546875 C 18.050781 -7.210938 18.609375 -9.554688 18.609375 -12.578125 L 18.609375 -21.609375 L 22.046875 -21.609375 L 22.046875 0 L 18.609375 0 Z M 18.609375 -3.6875 "/></g></g></g><g fill="#1b1b1b" fill-opacity="1"><g transform="translate(1042.90502, 924.255908)"><g><path d="M 7.125 0 L 3.6875 0 L 3.6875 -36.828125 L 7.125 -36.828125 Z M 7.125 0 "/></g></g></g><g fill="#1b1b1b" fill-opacity="1"><g transform="translate(1053.707372, 924.255908)"><g><path d="M 0.984375 -18.421875 L 0.984375 -21.609375 L 6.390625 -21.609375 L 6.390625 -30 L 9.828125 -30 L 9.828125 -21.609375 L 15.171875 -21.609375 L 15.171875 -18.421875 L 9.828125 -18.421875 L 9.828125 0 L 6.390625 0 L 6.390625 -18.421875 Z M 0.984375 -18.421875 "/></g></g></g><g fill="#1b1b1b" fill-opacity="1"><g transform="translate(1069.861805, 924.255908)"><g><path d="M 20.875 -10.796875 C 20.875 -12.898438 20.148438 -14.734375 18.703125 -16.296875 C 17.234375 -17.867188 15.421875 -18.65625 13.265625 -18.65625 C 11.097656 -18.65625 9.296875 -17.867188 7.859375 -16.296875 C 6.378906 -14.734375 5.640625 -12.898438 5.640625 -10.796875 C 5.640625 -8.703125 6.378906 -6.867188 7.859375 -5.296875 C 9.296875 -3.734375 11.097656 -2.953125 13.265625 -2.953125 C 15.421875 -2.953125 17.234375 -3.734375 18.703125 -5.296875 C 20.148438 -6.867188 20.875 -8.703125 20.875 -10.796875 Z M 24.3125 0 L 20.875 0 L 20.875 -3.6875 C 20.675781 -3.425781 20.476562 -3.179688 20.28125 -2.953125 C 18.21875 -0.660156 15.695312 0.484375 12.71875 0.484375 C 9.738281 0.484375 7.234375 -0.660156 5.203125 -2.953125 C 3.203125 -5.171875 2.203125 -7.785156 2.203125 -10.796875 C 2.203125 -13.816406 3.203125 -16.4375 5.203125 -18.65625 C 7.234375 -20.945312 9.738281 -22.09375 12.71875 -22.09375 C 15.695312 -22.09375 18.21875 -20.945312 20.28125 -18.65625 C 20.476562 -18.425781 20.675781 -18.179688 20.875 -17.921875 L 20.875 -21.609375 L 24.3125 -21.609375 Z M 24.3125 0 "/></g></g></g><g fill="#1b1b1b" fill-opacity="1"><g transform="translate(1097.849702, 924.255908)"><g><path d="M 20.875 -10.796875 C 20.875 -12.898438 20.148438 -14.734375 18.703125 -16.296875 C 17.234375 -17.867188 15.421875 -18.65625 13.265625 -18.65625 C 11.097656 -18.65625 9.296875 -17.867188 7.859375 -16.296875 C 6.378906 -14.734375 5.640625 -12.898438 5.640625 -10.796875 C 5.640625 -8.703125 6.378906 -6.867188 7.859375 -5.296875 C 9.296875 -3.734375 11.097656 -2.953125 13.265625 -2.953125 C 15.421875 -2.953125 17.234375 -3.734375 18.703125 -5.296875 C 20.148438 -6.867188 20.875 -8.703125 20.875 -10.796875 Z M 24.3125 0 L 20.875 0 L 20.875 -3.6875 C 20.675781 -3.425781 20.476562 -3.179688 20.28125 -2.953125 C 18.21875 -0.660156 15.695312 0.484375 12.71875 0.484375 C 9.738281 0.484375 7.234375 -0.660156 5.203125 -2.953125 C 3.203125 -5.171875 2.203125 -7.785156 2.203125 -10.796875 C 2.203125 -13.816406 3.203125 -16.4375 5.203125 -18.65625 C 7.234375 -20.945312 9.738281 -22.09375 12.71875 -22.09375 C 15.695312 -22.09375 18.21875 -20.945312 20.28125 -18.65625 C 20.476562 -18.425781 20.675781 -18.179688 20.875 -17.921875 L 20.875 -36.828125 L 24.3125 -36.828125 Z M 24.3125 0 "/></g></g></g><g fill="#1b1b1b" fill-opacity="1"><g transform="translate(1125.837646, 924.255908)"><g><path d="M 21.359375 -10.90625 C 21.359375 -13.0625 20.585938 -14.910156 19.046875 -16.453125 C 17.515625 -17.992188 15.664062 -18.765625 13.5 -18.765625 C 11.34375 -18.765625 9.492188 -17.992188 7.953125 -16.453125 C 6.410156 -14.910156 5.640625 -13.0625 5.640625 -10.90625 C 5.640625 -8.769531 6.410156 -6.9375 7.953125 -5.40625 C 9.492188 -3.863281 11.34375 -3.09375 13.5 -3.09375 C 15.664062 -3.09375 17.515625 -3.863281 19.046875 -5.40625 C 20.585938 -6.9375 21.359375 -8.769531 21.359375 -10.90625 Z M 24.796875 -10.90625 C 24.796875 -7.757812 23.703125 -5.109375 21.515625 -2.953125 C 19.253906 -0.753906 16.582031 0.34375 13.5 0.34375 C 10.425781 0.34375 7.773438 -0.753906 5.546875 -2.953125 C 3.316406 -5.109375 2.203125 -7.757812 2.203125 -10.90625 C 2.203125 -14.007812 3.316406 -16.675781 5.546875 -18.90625 C 7.742188 -21.101562 10.394531 -22.203125 13.5 -22.203125 C 16.613281 -22.203125 19.285156 -21.101562 21.515625 -18.90625 C 23.703125 -16.675781 24.796875 -14.007812 24.796875 -10.90625 Z M 24.796875 -10.90625 "/></g></g></g><g fill="#1b1b1b" fill-opacity="1"><g transform="translate(1152.843503, 924.255908)"><g><path d="M 6.53125 0.484375 C 5.78125 0.484375 5.125 0.207031 4.5625 -0.34375 C 3.976562 -0.863281 3.6875 -1.503906 3.6875 -2.265625 C 3.6875 -3.015625 3.960938 -3.664062 4.515625 -4.21875 C 5.078125 -4.78125 5.75 -5.0625 6.53125 -5.0625 C 7.3125 -5.0625 8 -4.796875 8.59375 -4.265625 C 9.144531 -3.710938 9.421875 -3.0625 9.421875 -2.3125 C 9.421875 -1.519531 9.128906 -0.863281 8.546875 -0.34375 C 7.953125 0.207031 7.28125 0.484375 6.53125 0.484375 Z M 6.53125 0.484375 "/></g></g></g></svg>